<?xml version="1.0" encoding="UTF-8"?>
<svg width="27px" height="27px" viewBox="0 0 27 27" version="1.1" xmlns="http://www.w3.org/2000/svg" xmlns:xlink="http://www.w3.org/1999/xlink">
    <!-- Generator: Sketch 49.3 (51167) - http://www.bohemiancoding.com/sketch -->
    <title>social_media_twitter</title>
    <desc>Created with Sketch.</desc>
    <defs></defs>
    <g id="Page-1" stroke="none" stroke-width="1" fill="none" fill-rule="evenodd" opacity="0.896852355">
        <g id="social_media_twitter" fill="#FFFFFF" fill-rule="nonzero">
            <g id="Group">
                <path d="M13.5,0.6328125 C20.5950938,0.6328125 26.3671875,6.40490625 26.3671875,13.5 C26.3671875,20.5950938 20.5950938,26.3671875 13.5,26.3671875 C6.40490625,26.3671875 0.6328125,20.5950938 0.6328125,13.5 C0.6328125,6.40490625 6.40490625,0.6328125 13.5,0.6328125 Z M13.5,0 C6.04378125,0 0,6.04378125 0,13.5 C0,20.955375 6.04378125,27 13.5,27 C20.9562188,27 27,20.955375 27,13.5 C27,6.04378125 20.9562188,0 13.5,0 Z" id="Shape"></path>
            </g>
            <path d="M15.3781875,7.4975625 C14.036625,7.98609375 13.1886562,9.24496875 13.2848437,10.6228125 L13.3169062,11.154375 L12.7802812,11.0894063 C10.827,10.8396563 9.12009375,9.993375 7.67053125,8.57165625 L6.96178125,7.86628125 L6.780375,8.386875 C6.3939375,9.547875 6.64115625,10.7746875 7.44609375,11.599875 C7.8755625,12.0555 7.77853125,12.1204687 7.0385625,11.849625 C6.78121875,11.7627187 6.55509375,11.69775 6.534,11.7306562 C6.45890625,11.8065937 6.71625,12.7937812 6.9204375,13.1852812 C7.19971875,13.7286562 7.76840625,14.259375 8.39109375,14.5749375 L8.91759375,14.8246875 L8.2940625,14.8339688 C7.6933125,14.8339688 7.671375,14.8449375 7.73634375,15.0735937 C7.95065625,15.7789687 8.798625,16.5282188 9.743625,16.8539062 L10.4093437,17.0817187 L9.8296875,17.4293437 C8.97075,17.9296875 7.961625,18.2115 6.9525,18.23175 C6.46903125,18.2427187 6.071625,18.28575 6.071625,18.3186563 C6.071625,18.4266563 7.38196875,19.0341562 8.14303125,19.2737812 C10.4295937,19.9791562 13.145625,19.6745625 15.1849687,18.4705312 C16.6345312,17.6132812 18.08325,15.9089062 18.7599375,14.2585312 C19.1252813,13.3801875 19.4897812,11.7736875 19.4897812,11.0033437 C19.4897812,10.5038437 19.5218437,10.438875 20.1225937,9.84234375 C20.4769687,9.49471875 20.8094062,9.11503125 20.874375,9.00703125 C20.982375,8.8003125 20.9705625,8.8003125 20.4238125,8.98509375 C19.5117188,9.31078125 19.382625,9.26775 19.8340312,8.77921875 C20.1664687,8.43159375 20.563875,7.80215625 20.563875,7.61821875 C20.563875,7.58615625 20.4027187,7.64015625 20.2204687,7.7371875 C20.02725,7.84603125 19.5977812,8.008875 19.2754687,8.10590625 L18.6958125,8.2906875 L18.1701562,7.93125 C17.8799062,7.73634375 17.4732187,7.51865625 17.2580625,7.4536875 C16.709625,7.3018125 15.872625,7.32375 15.3781875,7.4975625 Z" id="Shape"></path>
        </g>
    </g>
</svg>