<?xml version="1.0" encoding="UTF-8"?>
<svg width="42px" height="42px" viewBox="0 0 42 42" version="1.1" xmlns="http://www.w3.org/2000/svg" xmlns:xlink="http://www.w3.org/1999/xlink">
    <!-- Generator: Sketch 49.3 (51167) - http://www.bohemiancoding.com/sketch -->
    <title>social_media_telegram_blue</title>
    <desc>Created with Sketch.</desc>
    <defs></defs>
    <g id="Page-1" stroke="none" stroke-width="1" fill="none" fill-rule="evenodd" opacity="0.896852355">
        <g id="social_media_telegram_blue" fill="#0073D9" fill-rule="nonzero">
            <g id="Group" opacity="0.206861413">
                <path d="M21,0.984375 C32.0368125,0.984375 41.015625,9.9631875 41.015625,21 C41.015625,32.0368125 32.0368125,41.015625 21,41.015625 C9.9631875,41.015625 0.984375,32.0368125 0.984375,21 C0.984375,9.9631875 9.9631875,0.984375 21,0.984375 Z M21,0 C9.4014375,0 0,9.4014375 0,21 C0,32.59725 9.4014375,42 21,42 C32.5985625,42 42,32.59725 42,21 C42,9.4014375 32.5985625,0 21,0 Z" id="Shape"></path>
            </g>
            <g id="telegram-logo-copy" opacity="0.897531703" transform="translate(8.647059, 12.352941)">
                <path d="M16.8587088,19.7040896 C16.6951298,19.7040896 16.5326561,19.6531664 16.3932824,19.5537616 L11.1276982,15.7966072 L8.30352981,17.9342183 C8.08203508,18.1017533 7.7965456,18.1439567 7.53935087,18.0472259 C7.28248771,17.9502626 7.08740876,17.7264564 7.01777718,17.4489366 L5.59972455,11.7959982 L0.532866656,9.75802453 C0.213887709,9.62967021 0.00234034028,9.30866813 1.92876527e-05,8.94941554 C-0.00230176498,8.59016294 0.205045603,8.26613803 0.522477182,8.13324945 L19.7885403,0.0692494464 C19.8759667,0.0301850865 19.9684772,0.00763006925 20.0617614,0.00158439451 C20.0951403,-0.000508339058 20.1286298,-0.000508339058 20.1618982,0.00146813153 C20.3550982,0.013559481 20.5448719,0.0963387198 20.6929772,0.24910827 C20.7083403,0.264920035 20.7229298,0.281080588 20.7367456,0.29793872 C20.8594298,0.445360173 20.9268509,0.625102734 20.9395614,0.80821692 C20.9426561,0.854257059 20.9424351,0.900878512 20.9385667,0.947499965 C20.935914,0.980751177 20.9313824,1.01388612 20.9249719,1.04678855 L17.6729561,18.9953505 C17.6206772,19.2836827 17.4341088,19.5250446 17.1763614,19.6374709 C17.0741246,19.6821159 16.9661403,19.7040896 16.8587088,19.7040896 Z M11.5900298,14.0191789 L16.2804351,17.3658086 L18.8108246,3.39983491 L9.67173508,12.6504148 L11.5679246,14.0034834 C11.5755509,14.0084827 11.5828456,14.0138308 11.5900298,14.0191789 Z M7.68546666,13.2749796 L8.31347718,15.7781214 L9.66654034,14.7539609 L7.8948035,13.4897173 C7.81246139,13.4311207 7.7419456,13.3581076 7.68546666,13.2749796 Z M3.10978771,8.92720931 L6.58893508,10.3264342 C6.83817192,10.4266529 7.02628771,10.6470875 7.09437192,10.9184453 L7.53559297,12.6773879 C7.55581929,12.474509 7.6432456,12.2836052 7.78527192,12.1397879 L16.4935298,3.32542661 L3.10978771,8.92720931 Z" id="Shape"></path>
            </g>
        </g>
    </g>
</svg>