<?xml version="1.0" encoding="UTF-8"?>
<svg width="27px" height="27px" viewBox="0 0 27 27" version="1.1" xmlns="http://www.w3.org/2000/svg" xmlns:xlink="http://www.w3.org/1999/xlink">
    <!-- Generator: Sketch 49.3 (51167) - http://www.bohemiancoding.com/sketch -->
    <title>icon_medium_white</title>
    <desc>Created with Sketch.</desc>
    <defs></defs>
    <g id="Page-1" stroke="none" stroke-width="1" fill="none" fill-rule="evenodd" opacity="0.9">
        <g id="icon_medium_white" fill="#FFFFFF" fill-rule="nonzero">
            <g id="Group">
                <path d="M13.5,0.6328125 C20.5950938,0.6328125 26.3671875,6.40490625 26.3671875,13.5 C26.3671875,20.5950938 20.5950938,26.3671875 13.5,26.3671875 C6.40490625,26.3671875 0.6328125,20.5950938 0.6328125,13.5 C0.6328125,6.40490625 6.40490625,0.6328125 13.5,0.6328125 Z M13.5,0 C6.04378125,0 0,6.04378125 0,13.5 C0,20.955375 6.04378125,27 13.5,27 C20.9562188,27 27,20.955375 27,13.5 C27,6.04378125 20.9562188,0 13.5,0 Z" id="Shape"></path>
            </g>
            <path d="M7.01587302,9.65196943 C7.03699422,9.45095715 6.95741374,9.25227888 6.8015873,9.11699 L5.21428571,7.27513227 L5.21428571,7 L10.1428571,7 L13.952381,15.047619 L17.3015874,7 L22,7 L22,7.27513227 L20.6428572,8.52851264 C20.5258565,8.61441846 20.4678183,8.75561078 20.4920635,8.89535568 L20.4920635,18.1046444 C20.4678183,18.2443893 20.5258565,18.3855815 20.6428572,18.4714874 L21.968254,19.7248678 L21.968254,20 L15.3015873,20 L15.3015873,19.7248678 L16.6746032,18.4409171 C16.8095238,18.3109935 16.8095238,18.2727807 16.8095238,18.0740741 L16.8095238,10.6302175 L12.9920635,19.9694297 L12.4761905,19.9694297 L8.03174603,10.6302175 L8.03174603,16.8894768 C7.99468987,17.1526336 8.08542472,17.417575 8.27777777,17.6078778 L10.0634921,19.6942975 L10.0634921,19.9694297 L5,19.9694297 L5,19.6942975 L6.78571429,17.6078778 C6.97666684,17.4172595 7.06211087,17.1505606 7.01587302,16.8894768 L7.01587302,9.65196943 Z" id="Shape"></path>
        </g>
    </g>
</svg>