<?xml version="1.0" encoding="UTF-8"?>
<svg width="42px" height="42px" viewBox="0 0 42 42" version="1.1" xmlns="http://www.w3.org/2000/svg" xmlns:xlink="http://www.w3.org/1999/xlink">
    <!-- Generator: Sketch 49.3 (51167) - http://www.bohemiancoding.com/sketch -->
    <title>social_media_twitter_blue</title>
    <desc>Created with Sketch.</desc>
    <defs></defs>
    <g id="Page-1" stroke="none" stroke-width="1" fill="none" fill-rule="evenodd">
        <g id="social_media_twitter_blue" fill="#0073D9" fill-rule="nonzero">
            <g id="Group" fill-opacity="0.206380208">
                <path d="M21,0.984375 C32.0368125,0.984375 41.015625,9.9631875 41.015625,21 C41.015625,32.0368125 32.0368125,41.015625 21,41.015625 C9.9631875,41.015625 0.984375,32.0368125 0.984375,21 C0.984375,9.9631875 9.9631875,0.984375 21,0.984375 Z M21,0 C9.4014375,0 0,9.4014375 0,21 C0,32.59725 9.4014375,42 21,42 C32.5985625,42 42,32.59725 42,21 C42,9.4014375 32.5985625,0 21,0 Z" id="Shape"></path>
            </g>
            <path d="M23.921625,11.662875 C21.83475,12.4228125 20.5156875,14.3810625 20.6653125,16.524375 L20.7151875,17.35125 L19.8804375,17.2501875 C16.842,16.8616875 14.1868125,15.54525 11.9319375,13.3336875 L10.8294375,12.2364375 L10.54725,13.04625 C9.946125,14.85225 10.3306875,16.760625 11.5828125,18.04425 C12.250875,18.753 12.0999375,18.8540625 10.948875,18.43275 C10.5485625,18.2975625 10.1968125,18.1965 10.164,18.2476875 C10.0471875,18.3658125 10.4475,19.9014375 10.765125,20.5104375 C11.1995625,21.3556875 12.0841875,22.18125 13.0528125,22.672125 L13.8718125,23.060625 L12.901875,23.0750625 C11.967375,23.0750625 11.93325,23.092125 12.0343125,23.4478125 C12.3676875,24.5450625 13.68675,25.7105625 15.15675,26.2171875 L16.1923125,26.5715625 L15.290625,27.1123125 C13.9545,27.890625 12.38475,28.329 10.815,28.3605 C10.0629375,28.3775625 9.44475,28.4445 9.44475,28.4956875 C9.44475,28.6636875 11.4830625,29.6086875 12.6669375,29.9814375 C16.2238125,31.0786875 20.44875,30.604875 23.6210625,28.7319375 C25.8759375,27.3984375 28.1295,24.7471875 29.182125,22.1799375 C29.7504375,20.813625 30.3174375,18.314625 30.3174375,17.1163125 C30.3174375,16.3393125 30.3673125,16.23825 31.3018125,15.3103125 C31.8530625,14.7695625 32.3701875,14.1789375 32.47125,14.0109375 C32.63925,13.689375 32.620875,13.689375 31.770375,13.9768125 C30.3515625,14.4834375 30.15075,14.4165 30.8529375,13.6565625 C31.3700625,13.1158125 31.98825,12.1366875 31.98825,11.8505625 C31.98825,11.8006875 31.7375625,11.8846875 31.4540625,12.035625 C31.1535,12.2049375 30.4854375,12.45825 29.9840625,12.6091875 L29.082375,12.896625 L28.2646875,12.3375 C27.8131875,12.0343125 27.1805625,11.6956875 26.845875,11.594625 C25.99275,11.358375 24.69075,11.3925 23.921625,11.662875 Z" id="Shape"></path>
        </g>
    </g>
</svg>