<?xml version="1.0" encoding="UTF-8"?>
<svg width="42px" height="42px" viewBox="0 0 42 42" version="1.1" xmlns="http://www.w3.org/2000/svg" xmlns:xlink="http://www.w3.org/1999/xlink">
    <!-- Generator: Sketch 49.3 (51167) - http://www.bohemiancoding.com/sketch -->
    <title>icon_twitter</title>
    <desc>Created with Sketch.</desc>
    <defs></defs>
    <g id="Page-1" stroke="none" stroke-width="1" fill="none" fill-rule="evenodd">
        <g id="icon_twitter" fill="#0073D9" fill-rule="nonzero">
            <g id="Group" fill-opacity="0.206380208">
                <path d="M21,0.984375 C32.0368125,0.984375 41.015625,9.9631875 41.015625,21 C41.015625,32.0368125 32.0368125,41.015625 21,41.015625 C9.9631875,41.015625 0.984375,32.0368125 0.984375,21 C0.984375,9.9631875 9.9631875,0.984375 21,0.984375 Z M21,0 C9.4014375,0 0,9.4014375 0,21 C0,32.59725 9.4014375,42 21,42 C32.5985625,42 42,32.59725 42,21 C42,9.4014375 32.5985625,0 21,0 Z" id="Shape"></path>
            </g>
            <path d="M13.4901961,16.2639624 C13.516287,16.0165626 13.4179817,15.7720355 13.2254902,15.6055262 L11.2647059,13.3386243 L11.2647059,13 L17.3529412,13 L22.0588235,22.9047618 L26.1960785,13 L32,13 L32,13.3386243 L30.3235294,14.8812463 C30.1789993,14.9869766 30.1073049,15.1607517 30.137255,15.3327454 L30.137255,26.6672546 C30.1073049,26.8392483 30.1789993,27.0130234 30.3235294,27.1187537 L31.9607843,28.6613757 L31.9607843,29 L23.7254902,29 L23.7254902,28.6613757 L25.4215687,27.0811288 C25.5882353,26.9212228 25.5882353,26.8741917 25.5882353,26.6296297 L25.5882353,17.46796 L20.872549,28.9623751 L20.2352941,28.9623751 L14.745098,17.46796 L14.745098,25.1716637 C14.6993228,25.4955491 14.811407,25.8216308 15.0490196,26.0558495 L17.254902,28.6237508 L17.254902,28.9623751 L11,28.9623751 L11,28.6237508 L13.2058824,26.0558495 C13.4417649,25.8212425 13.5473134,25.4929977 13.4901961,25.1716637 L13.4901961,16.2639624 Z" id="Shape"></path>
        </g>
    </g>
</svg>